<?xml version="1.0" encoding="UTF-8"?>
<svg version="1.1" xmlns="http://www.w3.org/2000/svg" width="500" height="500">
<path d="M0 0 C1.54508125 -0.00083061 3.09016239 -0.00329724 4.63523865 -0.00730896 C7.84670123 -0.01014517 11.0574578 0.00433341 14.26879883 0.03198242 C18.38487335 0.06632319 22.49970892 0.05994142 26.61584568 0.04131985 C29.7943306 0.03076687 32.97252587 0.03966756 36.15098381 0.05470467 C37.66963784 0.05988216 39.18832213 0.0594099 40.70697212 0.05315971 C42.82037128 0.04771737 44.93197198 0.06803614 47.04516602 0.09545898 C48.2458522 0.10165756 49.44653839 0.10785614 50.68360901 0.11424255 C53.62109375 0.62890625 53.62109375 0.62890625 55.31309509 2.62635803 C55.74473465 3.28719894 56.17637421 3.94803986 56.62109375 4.62890625 C59.26219847 5.06172943 61.53858742 5.27887068 64.18359375 5.31640625 C71.44707168 5.54189522 71.44707168 5.54189522 73.62109375 6.62890625 C73.29109375 7.94890625 72.96109375 9.26890625 72.62109375 10.62890625 C65.03109375 10.62890625 57.44109375 10.62890625 49.62109375 10.62890625 C50.11609375 11.12390625 50.11609375 11.12390625 50.62109375 11.62890625 C54.36265298 11.62133224 58.09318059 11.55056022 61.83203125 11.4140625 C66.64378936 11.32785836 69.66073154 11.55399087 73.62109375 14.62890625 C73.29109375 15.61890625 72.96109375 16.60890625 72.62109375 17.62890625 C65.60303518 18.72977818 58.71543608 18.72623717 51.62109375 18.62890625 C52.21647949 18.6539624 52.81186523 18.67901855 53.42529297 18.70483398 C56.11578511 18.82068119 58.80591715 18.94345821 61.49609375 19.06640625 C62.43324219 19.10572266 63.37039063 19.14503906 64.3359375 19.18554688 C65.23183594 19.22744141 66.12773437 19.26933594 67.05078125 19.3125 C67.87819824 19.34915771 68.70561523 19.38581543 69.55810547 19.42358398 C71.62109375 19.62890625 71.62109375 19.62890625 73.62109375 20.62890625 C73.29109375 21.94890625 72.96109375 23.26890625 72.62109375 24.62890625 C70.92339844 24.66757813 70.92339844 24.66757813 69.19140625 24.70703125 C67.70959632 24.76330251 66.22782698 24.82065007 64.74609375 24.87890625 C63.99972656 24.89308594 63.25335938 24.90726563 62.484375 24.921875 C60.04970994 24.98876966 60.04970994 24.98876966 56.62109375 25.62890625 C55.35338531 27.59816414 55.35338531 27.59816414 54.62109375 29.62890625 C53.84736923 29.63477249 53.07364471 29.64063873 52.276474 29.64668274 C44.96451651 29.70472346 37.65289537 29.77686457 30.34123898 29.86462116 C26.58273931 29.9092404 22.82434593 29.94851462 19.06567383 29.9753418 C15.43446073 30.00145979 11.80365848 30.04192086 8.17270088 30.09209251 C6.79136856 30.10870413 5.40996527 30.12025382 4.02854729 30.12652016 C-6.11346457 30.06249152 -6.11346457 30.06249152 -15.37890625 33.62890625 C-18.6850768 37.10462401 -19.67372968 39.94456627 -19.94140625 44.62890625 C-19.79410836 48.12197049 -19.34397461 50.34964077 -17.19140625 53.12890625 C-12.2860631 57.48921127 -7.84425206 57.94013405 -1.453125 58.04296875 C-0.70553421 58.0623349 0.04205658 58.08170105 0.81230164 58.10165405 C3.18595181 58.16114543 5.55965129 58.20771217 7.93359375 58.25390625 C9.54884857 58.29211414 11.16408362 58.3311675 12.77929688 58.37109375 C16.72640085 58.46682155 20.67360014 58.55096392 24.62109375 58.62890625 C25.11609375 60.60890625 25.11609375 60.60890625 25.62109375 62.62890625 C25.95109375 61.98953125 26.28109375 61.35015625 26.62109375 60.69140625 C29.01254664 58.22522045 30.81091589 57.84286317 34.1953125 57.6015625 C45.90679964 57.73357604 57.3574388 61.74198356 66.03125 69.80078125 C74.42400883 79.45142285 79.02389945 90.07704655 78.83203125 102.85546875 C77.9534987 114.40654481 73.37163431 124.97270631 64.87109375 132.9609375 C55.58508955 139.84483297 46.15050586 142.72350152 34.64770508 142.79003906 C33.98986526 142.79500397 33.33202545 142.79996887 32.6542511 142.80508423 C30.50386471 142.81955026 28.35355179 142.82647767 26.203125 142.83203125 C25.46432287 142.83485863 24.72552074 142.837686 23.96433067 142.84059906 C20.0628868 142.85551998 16.16147931 142.86479713 12.26000977 142.86914062 C8.23493703 142.87464842 4.21019862 142.89874458 0.18523121 142.92711258 C-2.91771939 142.94572858 -6.02058874 142.95094375 -9.12359047 142.9524765 C-10.60795249 142.95550045 -12.09231317 142.96352034 -13.5766201 142.97666168 C-15.64924252 142.99371869 -17.72103704 142.99184468 -19.79370117 142.98535156 C-20.97171799 142.98899719 -22.1497348 142.99264282 -23.3634491 142.99639893 C-26.64972924 142.59590115 -28.06488708 141.96375401 -30.37890625 139.62890625 C-30.37890625 138.96890625 -30.37890625 138.30890625 -30.37890625 137.62890625 C-34.99890625 137.62890625 -39.61890625 137.62890625 -44.37890625 137.62890625 C-44.70890625 136.30890625 -45.03890625 134.98890625 -45.37890625 133.62890625 C-44.05890625 132.63890625 -42.73890625 131.64890625 -41.37890625 130.62890625 C-42.69890625 129.96890625 -44.01890625 129.30890625 -45.37890625 128.62890625 C-45.04890625 127.63890625 -44.71890625 126.64890625 -44.37890625 125.62890625 C-36.84709207 124.87223249 -29.87610234 124.48526617 -22.37890625 125.62890625 C-22.37890625 126.94890625 -22.37890625 128.26890625 -22.37890625 129.62890625 C-23.36890625 130.61890625 -23.36890625 130.61890625 -24.37890625 131.62890625 C-24.06038855 133.73711422 -24.06038855 133.73711422 -23.37890625 135.62890625 C-24.36890625 135.95890625 -25.35890625 136.28890625 -26.37890625 136.62890625 C-26.37890625 137.28890625 -26.37890625 137.94890625 -26.37890625 138.62890625 C-25.38890625 138.62890625 -24.39890625 138.62890625 -23.37890625 138.62890625 C-21.56899498 131.84173898 -21.94280709 124.45037727 -23.37890625 117.62890625 C-24.36890625 118.12390625 -24.36890625 118.12390625 -25.37890625 118.62890625 C-24.71890625 119.28890625 -24.05890625 119.94890625 -23.37890625 120.62890625 C-23.37890625 121.61890625 -23.37890625 122.60890625 -23.37890625 123.62890625 C-26.67055454 123.6578585 -29.96217024 123.67568855 -33.25390625 123.69140625 C-34.19105469 123.69978516 -35.12820312 123.70816406 -36.09375 123.71679688 C-37.43759766 123.72163086 -37.43759766 123.72163086 -38.80859375 123.7265625 C-40.04971924 123.73441772 -40.04971924 123.73441772 -41.31591797 123.74243164 C-43.37890625 123.62890625 -43.37890625 123.62890625 -45.37890625 122.62890625 C-45.04890625 121.30890625 -44.71890625 119.98890625 -44.37890625 118.62890625 C-43.40308594 118.603125 -42.42726562 118.57734375 -41.421875 118.55078125 C-40.14957031 118.4940625 -38.87726563 118.43734375 -37.56640625 118.37890625 C-36.30183594 118.3325 -35.03726563 118.28609375 -33.734375 118.23828125 C-32.07341797 117.93664062 -32.07341797 117.93664062 -30.37890625 117.62890625 C-29.73046501 116.63546959 -29.73046501 116.63546959 -29.06892395 115.6219635 C-27.37890625 113.62890625 -27.37890625 113.62890625 -24.51493835 113.13011169 C-23.34944962 113.13027786 -22.18396088 113.13044403 -20.9831543 113.13061523 C-20.33886475 113.12509644 -19.6945752 113.11957764 -19.03076172 113.1138916 C-17.63286574 113.10457223 -16.23488486 113.10446606 -14.83698082 113.11248589 C-12.62093652 113.12511218 -10.4061387 113.11383028 -8.19013977 113.09645081 C-4.28134852 113.06972067 -0.37286201 113.0641558 3.53601074 113.06555176 C9.78166644 113.06777769 16.02694307 113.05355471 22.2724514 113.0099659 C24.44952308 113.00015703 26.62599577 113.00883133 28.80305481 113.0186615 C30.14775986 113.01251322 31.4924617 113.00560013 32.8371582 112.99780273 C34.00503372 112.9987645 35.17290924 112.99972626 36.37617493 113.00071716 C40.05221275 112.57950756 42.46446197 111.52989454 45.62109375 109.62890625 C48.28450197 105.61001349 49.03771787 101.02291853 48.12109375 96.31640625 C46.48746574 92.30040407 45.30934826 90.82429584 41.62109375 88.62890625 C38.27744096 87.54592511 35.04235064 87.43257683 31.54296875 87.3125 C30.3828125 87.27060547 29.22265625 87.22871094 28.02734375 87.18554688 C26.82078125 87.14623047 25.61421875 87.10691406 24.37109375 87.06640625 C23.1490625 87.02322266 21.92703125 86.98003906 20.66796875 86.93554688 C17.65245455 86.8295327 14.63685927 86.72746689 11.62109375 86.62890625 C11.62109375 85.63890625 11.62109375 84.64890625 11.62109375 83.62890625 C11.16605469 84.11488281 10.71101563 84.60085937 10.2421875 85.1015625 C6.20097341 87.45642794 2.28040716 87.11810122 -2.31640625 87.06640625 C-3.73058838 87.05287109 -3.73058838 87.05287109 -5.17333984 87.0390625 C-17.98041632 86.72310927 -27.76297243 83.27849417 -37.37890625 74.62890625 C-47.28397977 64.15602597 -49.80074862 52.47816495 -49.6484375 38.41015625 C-48.85909762 27.33651856 -43.07523737 18.25098352 -35.28125 10.55859375 C-24.65135224 1.64568492 -13.44907904 -0.13223026 0 0 Z" fill="#043E85" transform="translate(234.37890625,123.37109375)"/>
<path d="M0 0 C8.09852971 7.52430633 13.54180532 18.54050157 14.34765625 29.48828125 C14.81739597 42.29379441 10.62745897 53.40913753 2.1875 63 C-6.68771986 71.34032937 -17.89685251 74.4048611 -29.78588867 74.47363281 C-30.77264839 74.48108017 -30.77264839 74.48108017 -31.77934265 74.48867798 C-33.92972904 74.50314401 -36.08004196 74.51007142 -38.23046875 74.515625 C-38.96927088 74.51845238 -39.70807301 74.52127975 -40.46926308 74.52419281 C-44.37070695 74.53911373 -48.27211444 74.54839088 -52.17358398 74.55273438 C-56.19865672 74.55824217 -60.22339513 74.58233833 -64.24836254 74.61070633 C-67.35131314 74.62932233 -70.45418249 74.6345375 -73.55718422 74.63607025 C-75.04154624 74.6390942 -76.52590692 74.64711409 -78.01021385 74.66025543 C-80.08283627 74.67731244 -82.15463079 74.67543843 -84.22729492 74.66894531 C-85.40531174 74.67259094 -86.58332855 74.67623657 -87.79704285 74.67999268 C-91.08332299 74.2794949 -92.49848083 73.64734776 -94.8125 71.3125 C-94.8125 70.6525 -94.8125 69.9925 -94.8125 69.3125 C-99.4325 69.3125 -104.0525 69.3125 -108.8125 69.3125 C-109.1425 67.9925 -109.4725 66.6725 -109.8125 65.3125 C-108.4925 64.3225 -107.1725 63.3325 -105.8125 62.3125 C-107.1325 61.6525 -108.4525 60.9925 -109.8125 60.3125 C-109.4825 59.3225 -109.1525 58.3325 -108.8125 57.3125 C-101.28068582 56.55582624 -94.30969609 56.16885992 -86.8125 57.3125 C-86.8125 58.6325 -86.8125 59.9525 -86.8125 61.3125 C-87.8025 62.3025 -87.8025 62.3025 -88.8125 63.3125 C-88.4939823 65.42070797 -88.4939823 65.42070797 -87.8125 67.3125 C-89.2975 67.8075 -89.2975 67.8075 -90.8125 68.3125 C-90.8125 68.9725 -90.8125 69.6325 -90.8125 70.3125 C-89.8225 70.3125 -88.8325 70.3125 -87.8125 70.3125 C-86.00258873 63.52533273 -86.37640084 56.13397102 -87.8125 49.3125 C-88.8025 49.8075 -88.8025 49.8075 -89.8125 50.3125 C-89.1525 50.9725 -88.4925 51.6325 -87.8125 52.3125 C-87.8125 53.3025 -87.8125 54.2925 -87.8125 55.3125 C-91.10414829 55.34145225 -94.39576399 55.3592823 -97.6875 55.375 C-98.62464844 55.38337891 -99.56179687 55.39175781 -100.52734375 55.40039062 C-101.87119141 55.40522461 -101.87119141 55.40522461 -103.2421875 55.41015625 C-104.06960449 55.41539307 -104.89702148 55.42062988 -105.74951172 55.42602539 C-107.8125 55.3125 -107.8125 55.3125 -109.8125 54.3125 C-109.4825 52.9925 -109.1525 51.6725 -108.8125 50.3125 C-107.83667969 50.28671875 -106.86085937 50.2609375 -105.85546875 50.234375 C-104.58316406 50.17765625 -103.31085938 50.1209375 -102 50.0625 C-100.10314453 49.99289063 -100.10314453 49.99289063 -98.16796875 49.921875 C-96.50701172 49.62023437 -96.50701172 49.62023437 -94.8125 49.3125 C-94.38020584 48.65020889 -93.94791168 47.98791779 -93.5025177 47.30555725 C-91.8125 45.3125 -91.8125 45.3125 -88.9485321 44.81370544 C-87.78304337 44.81387161 -86.61755463 44.81403778 -85.41674805 44.81420898 C-84.7724585 44.80869019 -84.12816895 44.80317139 -83.46435547 44.79748535 C-82.06645949 44.78816598 -80.66847861 44.78805981 -79.27057457 44.79607964 C-77.05453027 44.80870593 -74.83973245 44.79742403 -72.62373352 44.78004456 C-68.71494227 44.75331442 -64.80645576 44.74774955 -60.89758301 44.74914551 C-54.65192731 44.75137144 -48.40665068 44.73714846 -42.16114235 44.69355965 C-39.98407067 44.68375078 -37.80759798 44.69242508 -35.63053894 44.70225525 C-34.28583389 44.69610697 -32.94113205 44.68919388 -31.59643555 44.68139648 C-30.42856003 44.68235825 -29.26068451 44.68332001 -28.05741882 44.68431091 C-24.381381 44.26310131 -21.96913178 43.21348829 -18.8125 41.3125 C-16.14909178 37.29360724 -15.39587588 32.70651228 -16.3125 28 C-17.94612801 23.98399782 -19.12424549 22.50788959 -22.8125 20.3125 C-26.15615279 19.22951886 -29.39124311 19.11617058 -32.890625 18.99609375 C-34.05078125 18.95419922 -35.2109375 18.91230469 -36.40625 18.86914062 C-37.6128125 18.82982422 -38.819375 18.79050781 -40.0625 18.75 C-41.89554688 18.68522461 -41.89554688 18.68522461 -43.765625 18.61914062 C-46.7811392 18.51312645 -49.79673448 18.41106064 -52.8125 18.3125 C-52.19728025 15.29366016 -51.23122618 13.10931465 -49.5625 10.52734375 C-48.89734375 9.48416992 -48.89734375 9.48416992 -48.21875 8.41992188 C-47.7546875 7.70384766 -47.290625 6.98777344 -46.8125 6.25 C-45.89297219 4.82345477 -44.97618756 3.39513663 -44.0625 1.96484375 C-43.65515625 1.33570068 -43.2478125 0.70655762 -42.828125 0.05834961 C-41.65393091 -1.82371345 -41.65393091 -1.82371345 -40.8125 -4.6875 C-30.33933694 -16.90619024 -10.70167636 -8.18642649 0 0 Z" fill="#F7B315" transform="translate(298.8125,191.6875)"/>
</svg>
